#!OML:ASF E:\emotionWalksFemale\Project 1\Capture day 1\Session 1\Female1.ASF
:FULLY-SPECIFIED
:DEGREES
169
root 8.79235 15.1624 42.1685 178.899 -1.71165 -178.259
lowerback 6.64169 1.2678 2.14263
upperback -5.56856 1.79813 0.316827
thorax -9.58796 0.666546 -1.11826
lowerneck -1.81451 -2.84118 -5.30023
upperneck 5.40104 -3.89857 4.05345
head 2.23828 -1.98693 2.12327
rclavicle -1.04362e-014 -1.83876e-015
rhumerus -53.436 27.4437 -108.072
rradius 33.937
rwrist 1.67456
rhand -4.96625 -50.4308
rfingers 7.12502
rthumb 20.8258 -79.3331
lclavicle -1.04362e-014 -1.83876e-015
lhumerus -48.2832 -13.0638 93.4834
lradius 31.5875
lwrist -14.9577
lhand 12.3516 -33.9925
lfingers 7.12502
lthumb 37.3532 -8.02021
rfemur -4.41379 21.2741 26.7805
rtibia 26.303
rfoot -23.5858 -33.1665
rtoes -0.977191
lfemur -9.26429 -25.3516 -21.6646
ltibia 31.4829
lfoot -26.8554 20.2723
ltoes -32.1065
170
root 8.79167 15.1583 42.1739 178.8 -1.4705 -178.285
lowerback 6.82997 1.337 2.11422
upperback -5.54736 1.89742 0.313253
thorax -9.6742 0.717144 -1.12573
lowerneck -1.77072 -2.8604 -5.21372
upperneck 5.32144 -3.92154 3.97638
head 2.20033 -1.99765 2.08162
rclavicle -1.43933e-014 -7.25564e-015
rhumerus -53.4332 27.3867 -108.018
rradius 34.0217
rwrist 1.58818
rhand -5.23778 -50.0759
rfingers 7.12502
rthumb 20.5649 -79.0066
lclavicle -1.43933e-014 -7.25564e-015
lhumerus -48.2902 -13.0582 93.517
lradius 31.6009
lwrist -14.9697
lhand 11.1385 -34.1446
lfingers 7.12502
lthumb 36.2053 -7.87879
rfemur -4.39984 21.1546 26.714
rtibia 26.3274
rfoot -23.4059 -32.8173
rtoes -1.17013
lfemur -9.09954 -25.3898 -21.7895
ltibia 31.4781
lfoot -26.8912 20.6104
ltoes -32.0192
171
root 8.79385 15.16 42.1716 178.932 -1.60559 -178.29
lowerback 6.66341 1.29771 2.07574
upperback -5.58232 1.83091 0.31257
thorax -9.61672 0.686055 -1.0908
lowerneck -1.68179 -2.87804 -5.19835
upperneck 5.19804 -3.94391 3.95967
head 2.14374 -2.00826 2.07347
rclavicle -3.04389e-016 -2.83268e-015
rhumerus -53.458 27.1972 -107.888
rradius 34.161
rwrist 1.63739
rhand -5.4941 -49.7147
rfingers 7.12502
rthumb 20.3186 -78.6718
lclavicle -3.04389e-016 -2.83268e-015
lhumerus -48.3591 -13.0064 93.5131
lradius 31.7045
lwrist -15.0016
lhand 10.2649 -34.4332
lfingers 7.12502
lthumb 35.3775 -7.96613
rfemur -4.4985 21.2262 26.6952
rtibia 26.3061
rfoot -23.7096 -32.7841
rtoes -0.124992
lfemur -9.26659 -25.4701 -21.705
ltibia 31.4709
lfoot -26.9268 20.3859
ltoes -31.7944
172
root 8.79037 15.1574 42.173 178.835 -1.65938 -178.317
lowerback 6.78521 1.27494 2.1104
upperback -5.55062 1.81015 0.296336
thorax -9.65353 0.674496 -1.1275
lowerneck -1.5499 -2.89274 -5.17455
upperneck 4.96704 -3.95893 3.93168
head 2.04329 -2.01416 2.06077
rclavicle 7.06307e-015 5.56597e-015
rhumerus -53.3597 26.9665 -107.665
rradius 34.2616
rwrist 1.92235
rhand -5.05704 -50.2809
rfingers 7.12502
rthumb 20.7386 -79.1928
lclavicle 7.06307e-015 5.56597e-015
lhumerus -48.3246 -12.8608 93.4575
lradius 31.7835
lwrist -14.9732
lhand 10.1974 -34.6127
lfingers 7.12502
lthumb 35.3136 -8.13043
rfemur -4.36692 21.2508 26.7034
rtibia 26.3083
rfoot -23.8101 -32.807
rtoes 0.298712
lfemur -9.17068 -25.4823 -21.788
ltibia 31.4699
lfoot -26.9532 20.1734
ltoes -31.2024
173
root 8.79104 15.1611 42.1694 178.956 -1.94858 -178.305
lowerback 6.59199 1.18483 2.1028
upperback -5.55413 1.68002 0.303103
thorax -9.547 0.612486 -1.09203
lowerneck -1.42381 -2.91899 -5.10228
upperneck 4.68316 -3.98664 3.87507
head 1.92541 -2.02517 2.02967
rclavicle 1.66855e-014 -2.88238e-015
rhumerus -53.263 26.8712 -107.53
rradius 34.3212
rwrist 2.09592
rhand -4.65673 -50.8108
rfingers 7.12502
rthumb 21.1232 -79.6801
lclavicle 1.66855e-014 -2.88238e-015
lhumerus -48.3156 -12.8304 93.48
lradius 31.9193
lwrist -14.7738
lhand 10.1297 -34.487
lfingers 7.12502
lthumb 35.2493 -7.98951
rfemur -4.41046 21.3579 26.739
rtibia 26.2705
rfoot -23.8898 -33.1218
rtoes 0.527057
lfemur -9.37138 -25.4887 -21.6714
ltibia 31.4759
lfoot -26.7691 20.082
ltoes -31.7982
174
root 8.79236 15.1612 42.1741 178.935 -1.65275 -178.234
lowerback 6.72052 1.26709 2.12389
upperback -5.5327 1.80164 0.32907
thorax -9.59623 0.671707 -1.09708
lowerneck -1.45785 -2.94663 -4.93149
upperneck 4.54091 -4.01258 3.73932
head 1.87742 -2.03477 1.95324
rclavicle -7.97002e-015 -7.7526e-015
rhumerus -53.2169 26.8719 -107.485
rradius 34.435
rwrist 2.05373
rhand -4.62708 -50.816
rfingers 7.12502
rthumb 21.1517 -79.6822
lclavicle -7.97002e-015 -7.7526e-015
lhumerus -48.5523 -12.9869 93.634
lradius 32.3454
lwrist -14.6659
lhand 9.00355 -34.0618
lfingers 7.12502
lthumb 34.1806 -7.31836
rfemur -4.46429 21.263 26.7606
rtibia 26.2402
rfoot -23.5049 -32.8626
rtoes -0.154065
lfemur -9.33101 -25.398 -21.6217
ltibia 31.4967
lfoot -26.9097 20.3208
ltoes -31.7627
175
root 8.79328 15.1595 42.1744 178.88 -1.86019 -178.16
lowerback 6.7249 1.17006 2.23596
upperback -5.44981 1.68614 0.297226
thorax -9.50752 0.611615 -1.17644
lowerneck -1.58789 -2.97748 -4.70218
upperneck 4.45625 -4.04132 3.58377
head 1.8632 -2.04472 1.85896
rclavicle -1.97853e-014 4.72114e-015
rhumerus -53.0857 26.8207 -107.438
rradius 34.5856
rwrist 2.08981
rhand -4.60809 -50.715
rfingers 7.12502
rthumb 21.1699 -79.5791
lclavicle -1.97853e-014 4.72114e-015
lhumerus -48.8266 -13.1496 93.7143
lradius 32.9694
lwrist -14.5653
lhand 8.15029 -33.6195
lfingers 7.12502
lthumb 33.3699 -6.69806
rfemur -4.35129 21.2026 26.8955
rtibia 26.1889
rfoot -23.4217 -33.0646
rtoes -0.845512
lfemur -9.32841 -25.3953 -21.5284
ltibia 31.5113
lfoot -26.9071 20.1363
ltoes -31.6466
176
root 8.79216 15.1611 42.1779 178.871 -1.76742 -178.087
lowerback 6.84614 1.20487 2.26286
upperback -5.4623 1.74357 0.339099
thorax -9.59205 0.637897 -1.15849
lowerneck -1.62318 -3.02863 -4.58392
upperneck 4.38615 -4.09962 3.41855
head 1.84094 -2.07308 1.78202
rclavicle -3.78933e-015 5.2181e-015
rhumerus -53.0905 26.6679 -107.291
rradius 34.7077
rwrist 2.28977
rhand -4.58203 -50.6458
rfingers 7.12502
rthumb 21.195 -79.5072
lclavicle -3.78933e-015 5.2181e-015
lhumerus -49.0795 -13.2645 93.8997
lradius 33.4695
lwrist -14.1964
lhand 8.35669 -33.3249
lfingers 7.12502
lthumb 33.5661 -6.44588
rfemur -4.37912 21.1758 26.9458
rtibia 26.189
rfoot -23.2749 -32.9807
rtoes -1.36669
lfemur -9.3346 -25.3829 -21.4583
ltibia 31.5271
lfoot -26.8947 20.2129
ltoes -31.7698
177
root 8.79091 15.165 42.1775 178.994 -1.94972 -178.118
lowerback 6.72081 1.17081 2.28632
upperback -5.48824 1.69067 0.302938
thorax -9.54612 0.608439 -1.19937
lowerneck -1.54035 -3.06513 -4.58293
upperneck 4.20269 -4.14731 3.46358
head 1.77016 -2.0948 1.79666
rclavicle 5.53491e-015 1.15792e-014
rhumerus -53.0703 26.4813 -107.181
rradius 34.8086
rwrist 2.26928
rhand -4.65801 -50.7512
rfingers 7.12502
rthumb 21.122 -79.6206
lclavicle 5.53491e-015 1.15792e-014
lhumerus -49.1938 -13.4866 94.0935
lradius 33.6933
lwrist -13.8282
lhand 8.23033 -33.1657
lfingers 7.12502
lthumb 33.446 -6.26069
rfemur -4.48749 21.1446 26.8661
rtibia 26.164
rfoot -23.5069 -33.0181
rtoes -0.608857
lfemur -9.50479 -25.4524 -21.421
ltibia 31.5282
lfoot -26.7876 20.1604
ltoes -31.9757
178
root 8.79106 15.1582 42.1807 178.76 -1.61231 -178.234
lowerback 6.99288 1.29462 2.20127
upperback -5.40839 1.86248 0.271214
thorax -9.61528 0.700175 -1.21754
lowerneck -1.42753 -3.07748 -4.80198
upperneck 3.98582 -4.16722 3.73933
head 1.69567 -2.10248 1.92728
rclavicle -3.36692e-015 -2.48481e-016
rhumerus -53.0309 26.3888 -107.108
rradius 34.89
rwrist 1.8776
rhand -5.0791 -50.5991
rfingers 7.12502
rthumb 20.7174 -79.5133
lclavicle -3.36692e-015 -2.48481e-016
lhumerus -49.2777 -13.6966 94.3014
lradius 33.8249
lwrist -13.6817
lhand 7.35313 -33.0687
lfingers 7.12502
lthumb 32.6118 -5.98739
rfemur -4.30119 21.0812 26.7733
rtibia 26.188
rfoot -23.4009 -32.7386
rtoes -0.817346
lfemur -9.14125 -25.371 -21.7224
ltibia 31.5272
lfoot -26.8692 20.4583
ltoes -32.0055
179
root 8.78943 15.1635 42.1801 179.026 -1.7742 -178.262
lowerback 6.72801 1.23674 2.18842
upperback -5.47912 1.76833 0.285289
thorax -9.53959 0.652718 -1.17481
lowerneck -1.45004 -3.05891 -5.01445
upperneck 3.93687 -4.14093 3.92455
head 1.69443 -2.08855 2.02675
rclavicle 1.00386e-014 7.20594e-015
rhumerus -53.0412 26.3777 -107.04
rradius 34.9333
rwrist 1.6858
rhand -5.39688 -50.2993
rfingers 7.12502
rthumb 20.412 -79.2465
lclavicle 1.00386e-014 7.20594e-015
lhumerus -49.3279 -13.6842 94.4525
lradius 33.932
lwrist -13.5956
lhand 6.52717 -33.0926
lfingers 7.12502
lthumb 31.8255 -5.85177
rfemur -4.60186 21.0187 26.6359
rtibia 26.1911
rfoot -23.3517 -32.8032
rtoes -1.10062
lfemur -9.52127 -25.3145 -21.578
ltibia 31.5237
lfoot -26.7892 20.2223
ltoes -32.0781
180
root 8.79124 15.1563 42.1851 178.717 -1.67163 -178.269
lowerback 7.17131 1.20892 2.07123
upperback -5.40674 1.74626 0.35539
thorax -9.73013 0.654903 -1.04212
lowerneck -1.49562 -3.01562 -5.01745
upperneck 3.82065 -4.07355 3.90198
head 1.66106 -2.05299 2.02115
rclavicle -1.55301e-016 -2.11209e-015
rhumerus -53.1117 26.4045 -106.989
rradius 34.9907
rwrist 1.84237
rhand -5.37056 -50.3255
rfingers 7.12502
rthumb 20.4373 -79.27
lclavicle -1.55301e-016 -2.11209e-015
lhumerus -49.4049 -13.6119 94.5672
lradius 34.067
lwrist -13.3895
lhand 5.81547 -33.4489
lfingers 7.12502
lthumb 31.1475 -6.07563
rfemur -4.2741 20.9637 26.7426
rtibia 26.2093
rfoot -23.2377 -32.7039
rtoes -1.34976
lfemur -9.16794 -25.2178 -21.7252
ltibia 31.5359
lfoot -26.9987 19.947
ltoes -31.4799
181
root 8.79374 15.1553 42.1825 178.652 -1.98324 -178.192
lowerback 7.19377 1.09553 2.09156
upperback -5.34756 1.60295 0.391016
thorax -9.68332 0.588363 -0.993884
lowerneck -1.50483 -3.04982 -4.89615
upperneck 3.57119 -4.10544 3.77113
head 1.57642 -2.06582 1.95594
rclavicle -1.96424e-014 -4.02539e-015
rhumerus -53.0374 26.2541 -106.836
rradius 35.0379
rwrist 1.93728
rhand -5.35927 -50.5082
rfingers 7.12502
rthumb 20.4482 -79.4515
lclavicle -1.96424e-014 -4.02539e-015
lhumerus -49.6083 -13.8223 94.8479
lradius 34.3197
lwrist -13.5125
lhand 4.13418 -33.6791
lfingers 7.12502
lthumb 29.5438 -6.01014
rfemur -4.10333 21.0125 26.9296
rtibia 26.1604
rfoot -23.4929 -33.1054
rtoes -0.67012
lfemur -9.13503 -25.3043 -21.6326
ltibia 31.5472
lfoot -27.0104 19.6571
ltoes -29.8223
